<svg viewBox="0 0 680 420" width="100%" role="img" xmlns="http://www.w3.org/2000/svg">
  <title>化学选择性必修2 物质结构与性质 全书总览</title>
  <desc>原子结构→分子结构→晶体结构三层框架，结构决定性质</desc>
  <defs>
    <marker id="arrow" viewBox="0 0 10 10" refX="8" refY="5" markerWidth="6" markerHeight="6" orient="auto-start-reverse">
      <path d="M2 1L8 5L2 9" fill="none" stroke="context-stroke" stroke-width="1.5" stroke-linecap="round" stroke-linejoin="round"/>
    </marker>
  </defs>
  <style>
    .ts { font-family: sans-serif; font-size: 12px; fill: #5F5E5A; font-weight: 400; }
    .th { font-family: sans-serif; font-size: 14px; fill: #2C2C2A; font-weight: 500; }
    .arr { fill: none; stroke: #888780; stroke-width: 1.5; marker-end: url(#arrow); }
  </style>
  <rect x="0" y="0" width="680" height="420" fill="white" rx="4"/>
  <text class="th" x="340" y="28" text-anchor="middle">物质结构与性质 全书框架</text>
  <text class="ts" x="340" y="46" text-anchor="middle">结构决定性质 — 从原子到分子到晶体</text>
  <rect x="60" y="70" width="560" height="318" rx="20" fill="#F1EFE8" stroke="#B4B2A9" stroke-width="0.5"/>
  <rect x="90" y="100" width="500" height="82" rx="10" fill="#EEEDFE" stroke="#AFA9EC" stroke-width="0.5"/>
  <text class="th" x="340" y="122" text-anchor="middle" fill="#3C3489">第一章 原子结构与性质 (p5-32)</text>
  <text class="ts" x="340" y="142" text-anchor="middle" fill="#534AB7">能层能级 构造原理 电子排布 原子轨道 元素周期律</text>
  <text class="ts" x="340" y="162" text-anchor="middle" fill="#7F77DD">电离能 电负性 周期表分区(s/p/d/ds/f)</text>
  <line x1="340" y1="184" x2="340" y2="204" class="arr" stroke="#534AB7"/>
  <rect x="90" y="206" width="500" height="82" rx="10" fill="#E1F5EE" stroke="#5DCAA5" stroke-width="0.5"/>
  <text class="th" x="340" y="228" text-anchor="middle" fill="#085041">第二章 分子结构与性质 (p33-66)</text>
  <text class="ts" x="340" y="248" text-anchor="middle" fill="#1D9E75">键 键 VSEPR模型 sp/sp2/sp3杂化 分子极性</text>
  <text class="ts" x="340" y="268" text-anchor="middle" fill="#1D9E75">范德华力 氢键 相似相溶 手性分子</text>
  <line x1="340" y1="290" x2="340" y2="310" class="arr" stroke="#1D9E75"/>
  <rect x="90" y="312" width="500" height="64" rx="10" fill="#FAEEDA" stroke="#EF9F27" stroke-width="0.5"/>
  <text class="th" x="340" y="334" text-anchor="middle" fill="#633806">第三章 晶体结构与性质 (p67-103)</text>
  <text class="ts" x="340" y="356" text-anchor="middle" fill="#BA7517">晶胞均摊 四种晶体对比 配合物 超分子</text>
  <rect x="220" y="10" width="240" height="22" rx="11" fill="#534AB7"/>
  <text class="ts" x="340" y="24" text-anchor="middle" fill="white">结构决定性质的核心主线</text>
</svg>